<svg width="43" height="43" viewBox="0 0 43 43" fill="none" xmlns="http://www.w3.org/2000/svg">
<circle cx="21.5" cy="21.5" r="21.5" fill="white"/>
<path d="M27.3662 20.5576C27.3564 18.7656 28.167 17.4131 29.8076 16.417C28.8896 15.1035 27.5029 14.3809 25.6719 14.2393C23.9385 14.1025 22.0439 15.25 21.3506 15.25C20.6182 15.25 18.9385 14.2881 17.6201 14.2881C14.8955 14.332 12 16.4609 12 20.792C12 22.0713 12.2344 23.3929 12.7031 24.7568C13.3281 26.5488 15.584 30.9434 17.9375 30.8701C19.168 30.8408 20.0371 29.9961 21.6387 29.9961C23.1914 29.9961 23.9971 30.8701 25.3691 30.8701C27.7422 30.8359 29.7832 26.8418 30.3789 25.0449C27.1953 23.5459 27.3662 20.6504 27.3662 20.5576ZM24.6025 12.54C25.9355 10.958 25.8135 9.51758 25.7744 9C24.5977 9.06836 23.2354 9.80078 22.459 10.7041C21.6045 11.6709 21.1016 12.8672 21.209 14.2148C22.4834 14.3125 23.6455 13.6582 24.6025 12.54Z" fill="#9A9A9A"/>
</svg>
