<svg width="43" height="43" viewBox="0 0 43 43" fill="none" xmlns="http://www.w3.org/2000/svg">
<circle cx="21.5" cy="21.5" r="21.5" fill="white"/>
<path d="M13.125 18.9824V25.7676C13.125 26.6699 12.416 27.3906 11.5137 27.3906C10.6172 27.3906 9.75 26.6641 9.75 25.7676V18.9824C9.75 18.0977 10.6172 17.3711 11.5137 17.3711C12.3984 17.3711 13.125 18.0977 13.125 18.9824ZM13.7578 28.1816C13.7578 29.1426 14.5312 29.916 15.4922 29.916H16.6582L16.6758 33.4961C16.6758 35.6582 19.9102 35.6406 19.9102 33.4961V29.916H22.0898V33.4961C22.0898 35.6465 25.3418 35.6523 25.3418 33.4961V29.916H26.5254C27.4746 29.916 28.248 29.1426 28.248 28.1816V17.6699H13.7578V28.1816ZM28.2891 17.1016H13.6934C13.6934 14.5937 15.1934 12.4141 17.4199 11.2773L16.3008 9.20898C16.1367 8.92187 16.5527 8.74023 16.6934 8.98633L17.8301 11.0723C19.875 10.1641 22.2246 10.2109 24.1758 11.0723L25.3066 8.99219C25.4531 8.74023 25.8633 8.92773 25.6992 9.21484L24.5801 11.2773C26.7891 12.4141 28.2891 14.5937 28.2891 17.1016ZM18.2871 13.8496C18.2871 13.5156 18.0176 13.2344 17.6719 13.2344C17.3379 13.2344 17.0742 13.5156 17.0742 13.8496C17.0742 14.1836 17.3438 14.4648 17.6719 14.4648C18.0176 14.4648 18.2871 14.1836 18.2871 13.8496ZM24.9316 13.8496C24.9316 13.5156 24.6621 13.2344 24.334 13.2344C23.9883 13.2344 23.7188 13.5156 23.7188 13.8496C23.7188 14.1836 23.9883 14.4648 24.334 14.4648C24.6621 14.4648 24.9316 14.1836 24.9316 13.8496ZM30.4863 17.3711C29.6016 17.3711 28.875 18.0801 28.875 18.9824V25.7676C28.875 26.6699 29.6016 27.3906 30.4863 27.3906C31.3887 27.3906 32.25 26.6641 32.25 25.7676V18.9824C32.25 18.0801 31.3828 17.3711 30.4863 17.3711Z" fill="#00B312"/>
</svg>
